<svg xmlns="http://www.w3.org/2000/svg" width="720" height="960" viewBox="0 0 720 960" version="1.1"><path d="" stroke="none" fill="#f04444" fill-rule="evenodd"/><path d="M 0 480.001 L 0 960.003 360.250 959.751 L 720.500 959.500 720.751 479.750 L 721.002 0 360.501 0 L 0 0 0 480.001 M 0.496 480.500 C 0.496 744.500, 0.610 852.351, 0.750 720.168 C 0.890 587.986, 0.890 371.986, 0.750 240.168 C 0.610 108.351, 0.496 216.500, 0.496 480.500 M 12 360 L 12 708 360 708 L 708 708 708 360 L 708 12 360 12 L 12 12 12 360 M 261 361.500 L 261 518 302.500 518 L 344 518 344 460.500 L 344 403 400 403 L 456 403 456 368 L 456 333 400 333 L 344 333 344 304 L 344 275 409.500 275 L 475 275 475 240 L 475 205 368 205 L 261 205 261 361.500 M 12 834 L 12 948 360 948 L 708 948 708 834 L 708 720 360 720 L 12 720 12 834 M 143.747 801.984 C 140.623 804.442, 139.529 808.449, 141.008 812.020 C 143.908 819.021, 156.092 819.021, 158.992 812.020 C 161.440 806.110, 156.869 800, 150 800 C 147.794 800, 145.239 800.811, 143.747 801.984 M 356.747 801.984 C 353.623 804.442, 352.529 808.449, 354.008 812.020 C 356.908 819.021, 369.092 819.021, 371.992 812.020 C 374.440 806.110, 369.869 800, 363 800 C 360.794 800, 358.239 800.811, 356.747 801.984 M 622 812 L 622 818 628.500 818 L 635 818 635 836.040 C 635 856.555, 635.908 859.926, 642.534 864.021 C 645.703 865.980, 647.136 866.191, 654.587 865.800 C 659.238 865.556, 663.524 864.876, 664.111 864.289 C 664.868 863.532, 664.774 861.806, 663.788 858.361 L 662.397 853.500 658.112 853.827 C 655.099 854.057, 653.260 853.641, 651.914 852.422 C 650.137 850.814, 650 849.085, 650 828.345 L 650 806 636 806 L 622 806 622 812 M 57.693 810.750 C 57.460 811.163, 57.281 823.538, 57.297 838.250 L 57.325 865 65.162 865 L 73 865 73 855 L 73 845 83.048 845 L 93.095 845 92.798 838.750 L 92.500 832.500 82.750 832.214 L 73 831.928 73 827.464 L 73 823 84.500 823 L 96 823 96 816.500 L 96 810 77.059 810 C 66.641 810, 57.927 810.337, 57.693 810.750 M 278.577 812.250 C 278.323 813.487, 277.852 816.144, 277.530 818.153 C 276.880 822.217, 275.650 823, 269.918 823 L 266 823 266 829 L 266 835 270.866 835 L 275.733 835 276.206 844.750 C 276.740 855.748, 278.204 859.583, 283.235 863.171 C 286.165 865.261, 287.598 865.500, 297.200 865.500 C 303.086 865.500, 308.354 865.046, 308.908 864.492 C 309.585 863.815, 309.498 861.845, 308.642 858.492 L 307.368 853.500 301.338 853.833 C 292.974 854.295, 292 853.158, 292 842.929 L 292 835 300 835 L 308 835 308 828.500 L 308 822 300 822 L 292 822 292 816 L 292 810 285.519 810 C 279.601 810, 278.998 810.196, 278.577 812.250 M 216.297 822.028 C 204.191 824.481, 197.044 832.638, 197.044 844 C 197.044 857.339, 206.207 866, 220.319 866 C 227.260 866, 231.980 864.752, 236.229 861.794 L 238.958 859.894 236.271 855.697 C 234.793 853.389, 233.471 851.331, 233.333 851.125 C 233.196 850.918, 231.255 851.481, 229.021 852.375 C 223.251 854.684, 219.647 854.415, 216.077 851.411 C 213.438 849.191, 213.005 848.158, 213.032 844.161 C 213.049 841.597, 213.612 838.786, 214.282 837.913 C 217.279 834.010, 224.252 832.826, 228.944 835.425 C 231.263 836.709, 231.564 836.548, 234.790 832.324 C 238.033 828.077, 238.111 827.781, 236.475 825.972 C 233.349 822.518, 223.440 820.581, 216.297 822.028 M 426.905 821.935 C 414.753 824.300, 407.156 836.176, 409.783 848.702 C 412.013 859.335, 420.223 866, 431.090 866 C 438.013 866, 442.842 864.092, 447.366 859.567 C 451.849 855.084, 453.304 850.390, 452.827 841.952 C 452.509 836.319, 451.904 834.325, 449.461 830.848 C 444.710 824.088, 435.184 820.324, 426.905 821.935 M 505.135 821.990 C 503.284 822.433, 500.489 823.741, 498.925 824.897 C 495.383 827.516, 495.212 827.510, 494.820 824.750 C 494.533 822.729, 493.864 822.470, 488.250 822.202 L 482 821.905 482 843.452 L 482 865 489.500 865 L 497 865 497 851.360 C 497 839.543, 497.234 837.543, 498.750 836.392 C 501.370 834.403, 506.751 834.626, 507.400 836.750 C 507.695 837.712, 507.869 844.350, 507.787 851.500 L 507.639 864.500 515.319 864.792 L 523 865.084 523 848.502 C 523 834.156, 522.743 831.416, 521.091 828.178 C 518.286 822.680, 512.169 820.308, 505.135 821.990 M 567.871 822.007 C 563.262 822.796, 554 826.409, 554 827.417 C 554 828.604, 558.448 837, 559.077 837 C 559.450 837, 561.371 836.325, 563.346 835.500 C 569.580 832.895, 581.290 834.168, 577 836.985 C 576.175 837.526, 574.119 837.976, 572.432 837.985 C 567.980 838.007, 559.688 840.671, 556.662 843.052 C 550.977 847.523, 550.902 857.741, 556.515 863.015 C 560.466 866.726, 569.918 867.010, 576.250 863.608 C 580.781 861.174, 581 861.147, 581 863.028 C 581 864.788, 581.698 865, 587.500 865 L 594 865 594 850.212 C 594 836.865, 593.781 834.989, 591.750 830.962 C 588.043 823.610, 578.784 820.138, 567.871 822.007 M 127 828.500 L 127 835 135 835 L 143 835 143 850 L 143 865 150.500 865 L 158 865 158 843.500 L 158 822 142.500 822 L 127 822 127 828.500 M 340 828.500 L 340 835 348 835 L 356 835 356 850 L 356 865 363.500 865 L 371 865 371 843.500 L 371 822 355.500 822 L 340 822 340 828.500 M 426.872 835.654 C 426 836.704, 425.500 839.833, 425.500 844.234 C 425.500 849.937, 425.843 851.412, 427.441 852.581 C 430.194 854.594, 433.383 854.339, 435.561 851.932 C 438.225 848.989, 438.247 839.041, 435.595 836.107 C 433.318 833.588, 428.783 833.352, 426.872 835.654 M 570 848.294 C 566.464 850.083, 566.678 853.406, 570.357 853.827 C 574.816 854.337, 579 852.183, 579 849.379 C 579 847.359, 578.510 847.002, 575.750 847.015 C 573.962 847.023, 571.375 847.599, 570 848.294" stroke="none" fill="#ec4444" fill-rule="evenodd"/></svg>